<?xml version="1.0" encoding="UTF-8" standalone="no"?>
<svg width="86px" height="75px" viewBox="0 0 86 75" version="1.1" xmlns="http://www.w3.org/2000/svg" xmlns:xlink="http://www.w3.org/1999/xlink">
    <!-- Generator: Sketch 42 (36781) - http://www.bohemiancoding.com/sketch -->
    <title>theLogo</title>
    <desc>Created with Sketch.</desc>
    <defs></defs>
    <g id="Welcome" stroke="none" stroke-width="1" fill="none" fill-rule="evenodd">
        <g id="Tablet-Portrait" transform="translate(-341.000000, -21.000000)" fill-rule="nonzero" fill="#333333">
            <g id="theLogo" transform="translate(341.000000, 21.000000)">
                <g id="Layer_1">
                    <g id="Group">
                        <path d="M58.7829974,44.9258676 C56.6725679,52.9510478 53.8234882,59.7345964 52.8059597,61.786317 C50.567397,66.4121521 44.7561788,74.0890698 30.0962314,74.4373323 C4.69570552,73.8543711 6.09763365,55.4115984 6.09763365,55.4115984 C6.34636284,49.5214189 10.6199825,44.077924 10.6199825,40.2773198 C10.6199825,38.1877445 8.35880806,36.2495878 1.90692375,36.2495878 L0.0527607362,36.2495878 L1.74864154,29.7613053 L3.92690622,29.7613053 C8.28343558,29.7613053 11.0269939,29.1632022 12.8057844,27.4521732 C18.3758107,22.3039444 14.0946538,10.9021317 21.119369,4.41384914 C25.5588081,0.386117163 32.9000876,-0.280124216 40.9724803,0.0908510972 L39.5102542,5.67819358 C35.1537248,5.75390282 32.6513585,6.27629663 31.0383874,7.76776881 C26.5160386,11.87121 28.777213,23.5758597 22.7248028,29.2389115 C19.8983348,31.7751713 16.0241893,32.5171219 10.7782647,32.9638064 L10.695355,33.5619095 C17.6371604,34.6066971 21.2701139,36.5448539 21.2701139,40.6482951 C21.2701139,44.6003178 17.4788782,51.3081572 17.4788782,54.9573429 C17.4788782,54.9573429 15.134794,68.4638727 30.1037686,68.6001493 C36.2014023,68.6077202 39.3745837,64.2695804 41.025241,61.7787461 C46.3616126,52.7996293 52.1502191,24.7796368 52.1502191,24.7796368 C52.7908852,22.0238201 53.514461,19.5405568 53.514461,19.5405568 C56.8685364,7.75262696 63.9912358,2.02143691 74.2268186,2.48326332 C82.2087642,2.84666771 86.1658195,6.45799883 85.9849255,10.5538691 C85.8417178,13.7563703 83.4448729,16.709031 79.4199825,16.5273288 C76.27695,16.3834812 74.0986854,14.4983209 74.2268186,11.6667951 C74.3021911,10.0314753 75.1840491,8.27502077 76.6839614,7.29837148 C76.1337423,6.97282171 75.334794,6.71541027 74.452936,6.67755565 C68.890447,6.42771513 67.8126205,10.6295784 65.5966696,18.6699005 L65.2122699,20.0705216 C65.2047327,20.0705216 61.6019281,34.1978672 58.7829974,44.9258676 Z" id="Shape"></path>
                        <polygon id="Shape" points="68.4985101 34.7278319 42.4950044 34.7278319 44.002454 28.2925459 70.2320771 28.2925459"></polygon>
                    </g>
                </g>
            </g>
        </g>
    </g>
</svg>